<svg width="133" height="28" viewBox="0 0 133 28" fill="none" xmlns="http://www.w3.org/2000/svg">
<path d="M7.088 7.592H29.616V13.672H7.088V7.592ZM28.72 0.519999H36.72V21H28.72V0.519999ZM0.24 0.519999H8.24V21H0.24V0.519999ZM69.4648 21H61.7848V5.32H69.4648V21ZM62.1048 12.904L62.1688 14.44C62.1048 14.888 61.8914 15.4107 61.5288 16.008C61.1874 16.6053 60.7074 17.224 60.0888 17.864C59.4701 18.504 58.7128 19.1013 57.8168 19.656C56.9208 20.1893 55.8968 20.6267 54.7448 20.968C53.5928 21.3093 52.3128 21.48 50.9048 21.48C49.4968 21.48 48.1634 21.3307 46.9048 21.032C45.6461 20.7547 44.5261 20.2853 43.5448 19.624C42.5634 18.9627 41.7954 18.0773 41.2408 16.968C40.6861 15.8373 40.4088 14.4293 40.4088 12.744V5.32H48.0888V11.944C48.0888 13.1173 48.2808 14.024 48.6648 14.664C49.0701 15.304 49.6994 15.752 50.5528 16.008C51.4061 16.2427 52.5048 16.36 53.8488 16.36C55.1074 16.36 56.2701 16.1787 57.3368 15.816C58.4248 15.432 59.3741 14.9733 60.1848 14.44C61.0168 13.9067 61.6568 13.3947 62.1048 12.904ZM85.2743 18.792C82.2449 18.792 79.7489 18.5467 77.7863 18.056C75.8236 17.544 74.3729 16.7867 73.4343 15.784C72.4956 14.76 72.0263 13.48 72.0263 11.944C72.0263 10.5147 72.4849 9.27733 73.4023 8.232C74.3196 7.16533 75.7489 6.33333 77.6903 5.736C79.6529 5.13867 82.1809 4.84 85.2743 4.84C85.8929 4.84 86.5223 4.84 87.1623 4.84C87.8023 4.84 88.4316 4.84 89.0503 4.84H101.274V8.872C99.8876 8.936 98.4796 8.872 97.0503 8.68C95.6423 8.46667 94.3409 8.18933 93.1463 7.848L92.7943 7.368C93.7543 7.66667 94.6609 8.05067 95.5143 8.52C96.3889 8.98933 97.0929 9.55467 97.6263 10.216C98.1596 10.8773 98.4263 11.6667 98.4263 12.584C98.4263 13.9067 97.9676 15.0373 97.0503 15.976C96.1543 16.8933 94.7356 17.5973 92.7943 18.088C90.8743 18.5573 88.3676 18.792 85.2743 18.792ZM92.0903 27.88V27.016C92.0903 26.376 91.8023 25.992 91.2263 25.864C90.6716 25.7573 89.7863 25.704 88.5703 25.704H79.6423C78.1276 25.704 76.9009 25.5973 75.9623 25.384C75.0449 25.1707 74.3409 24.8827 73.8503 24.52C73.3809 24.1573 73.0609 23.752 72.8903 23.304C72.7409 22.8773 72.6663 22.4507 72.6663 22.024C72.6663 21.1067 73.0076 20.392 73.6903 19.88C74.3729 19.3467 75.4183 18.9733 76.8263 18.76C78.2343 18.5467 80.0263 18.44 82.2023 18.44L85.2743 18.792C83.4823 18.792 82.2343 18.888 81.5303 19.08C80.8263 19.2507 80.4743 19.6027 80.4743 20.136C80.4743 20.4347 80.6129 20.6587 80.8903 20.808C81.1676 20.936 81.5409 21 82.0103 21H91.4503C93.5623 21 95.2263 21.1493 96.4423 21.448C97.6583 21.768 98.5116 22.2907 99.0023 23.016C99.5143 23.7627 99.7703 24.776 99.7703 26.056V27.88H92.0903ZM85.2743 14.6C86.6823 14.6 87.8129 14.4933 88.6663 14.28C89.5409 14.0453 90.1703 13.736 90.5543 13.352C90.9383 12.968 91.1303 12.5413 91.1303 12.072C91.1303 11.5387 90.9383 11.08 90.5543 10.696C90.1703 10.312 89.5516 10.0133 88.6983 9.8C87.8449 9.58667 86.7036 9.48 85.2743 9.48C83.8663 9.48 82.7249 9.58667 81.8503 9.8C80.9756 10.0133 80.3356 10.312 79.9303 10.696C79.5249 11.08 79.3223 11.5387 79.3223 12.072C79.3223 12.5413 79.5143 12.968 79.8983 13.352C80.3036 13.736 80.9436 14.0453 81.8183 14.28C82.6929 14.4933 83.8449 14.6 85.2743 14.6ZM117.258 21.48C113.866 21.48 111.039 21.2027 108.778 20.648C106.538 20.0933 104.852 19.208 103.722 17.992C102.612 16.776 102.058 15.176 102.058 13.192C102.058 11.208 102.612 9.608 103.722 8.392C104.852 7.15467 106.538 6.25867 108.778 5.704C111.039 5.128 113.866 4.84 117.258 4.84C120.628 4.84 123.423 5.128 125.642 5.704C127.882 6.25867 129.556 7.15467 130.666 8.392C131.775 9.608 132.33 11.208 132.33 13.192C132.33 15.176 131.775 16.776 130.666 17.992C129.556 19.208 127.882 20.0933 125.642 20.648C123.423 21.2027 120.628 21.48 117.258 21.48ZM117.258 16.84C118.836 16.84 120.159 16.712 121.226 16.456C122.292 16.1787 123.103 15.7733 123.658 15.24C124.212 14.6853 124.49 14.0027 124.49 13.192C124.49 12.3813 124.212 11.6987 123.658 11.144C123.124 10.5893 122.324 10.1733 121.258 9.896C120.191 9.61867 118.858 9.48 117.258 9.48C115.679 9.48 114.335 9.61867 113.226 9.896C112.138 10.1733 111.306 10.5893 110.73 11.144C110.175 11.6773 109.898 12.36 109.898 13.192C109.898 14.0027 110.175 14.6853 110.73 15.24C111.284 15.7733 112.106 16.1787 113.194 16.456C114.303 16.712 115.658 16.84 117.258 16.84Z" fill="white"/>
</svg>
